<svg width="100" height="100" viewBox="0 0 100 100" fill="none" xmlns="http://www.w3.org/2000/svg">
<rect width="100" height="100" rx="22" fill="#181B22"/>
<path d="M30.6067 40.04H20.3987V35.2H46.5347V40.04H36.3267V66H30.6067V40.04ZM70.3634 50.116C72.5634 50.5267 74.2354 51.392 75.3794 52.712C76.5527 54.032 77.1394 55.748 77.1394 57.86C77.1394 60.4707 76.1861 62.48 74.2794 63.888C72.3727 65.296 69.5421 66 65.7874 66H52.0594V35.2H64.9074C68.2514 35.2 70.8474 35.8893 72.6954 37.268C74.5727 38.6173 75.5114 40.5533 75.5114 43.076C75.5114 44.836 75.0421 46.3173 74.1034 47.52C73.1941 48.7227 71.9474 49.588 70.3634 50.116ZM54.3034 37.136V49.412H64.8194C67.5181 49.412 69.5861 48.8987 71.0234 47.872C72.4901 46.816 73.2234 45.276 73.2234 43.252C73.2234 41.2573 72.4901 39.7467 71.0234 38.72C69.5861 37.664 67.5181 37.136 64.8194 37.136H54.3034ZM65.7874 64.064C68.7794 64.064 71.0381 63.5507 72.5634 62.524C74.1181 61.468 74.8954 59.8547 74.8954 57.684C74.8954 55.5133 74.1181 53.9147 72.5634 52.888C71.0381 51.8613 68.7794 51.348 65.7874 51.348H54.3034V64.064H65.7874Z" fill="white"/>
</svg>
