<svg width="56" height="56" viewBox="0 0 56 56" fill="none" xmlns="http://www.w3.org/2000/svg">
<rect width="56" height="56" rx="8" fill="#222A37"/>
<path d="M35.1236 11H20.8765C15.4306 11 11 15.4306 11 20.8765V35.1235C11 40.5694 15.4306 45 20.8765 45H35.1235C40.5694 45 45 40.5694 45 35.1236V20.8765C45 15.4306 40.5694 11 35.1236 11ZM42.3438 35.1235C42.3438 39.1048 39.1048 42.3438 35.1236 42.3438H20.8765C16.8952 42.3438 13.6562 39.1048 13.6562 35.1236V20.8765C13.6562 16.8952 16.8952 13.6562 20.8765 13.6562H35.1235C39.1048 13.6562 42.3438 16.8952 42.3438 20.8765V35.1235Z" fill="white"/>
<path d="M28 18.8359C22.9469 18.8359 18.8359 22.9469 18.8359 28C18.8359 33.0531 22.9469 37.1641 28 37.1641C33.0531 37.1641 37.1641 33.0531 37.1641 28C37.1641 22.9469 33.0531 18.8359 28 18.8359ZM28 34.5078C24.4116 34.5078 21.4922 31.5884 21.4922 28C21.4922 24.4116 24.4116 21.4922 28 21.4922C31.5884 21.4922 34.5078 24.4116 34.5078 28C34.5078 31.5884 31.5884 34.5078 28 34.5078Z" fill="white"/>
<path d="M37.2969 20.0312C38.0304 20.0312 38.625 19.4366 38.625 18.7031C38.625 17.9696 38.0304 17.375 37.2969 17.375C36.5634 17.375 35.9688 17.9696 35.9688 18.7031C35.9688 19.4366 36.5634 20.0312 37.2969 20.0312Z" fill="white"/>
</svg>
