<svg width="56" height="56" viewBox="0 0 56 56" fill="none" xmlns="http://www.w3.org/2000/svg">
<rect width="56" height="56" rx="8" fill="#222A37"/>
<g clip-path="url(#clip0)">
<path d="M41.9928 43V42.9988H42V31.9962C42 26.6137 40.8799 22.4675 34.7971 22.4675C31.873 22.4675 29.9106 24.1275 29.1095 25.7012H29.0249V22.97H23.2575V42.9988H29.263V33.0812C29.263 30.47 29.7415 27.945 32.8674 27.945C35.9475 27.945 35.9934 30.925 35.9934 33.2487V43H41.9928Z" fill="white"/>
<path d="M13.4785 22.9713H19.4912V43H13.4785V22.9713Z" fill="white"/>
<path d="M16.4824 13C14.56 13 13 14.6137 13 16.6025C13 18.5912 14.56 20.2387 16.4824 20.2387C18.4049 20.2387 19.9648 18.5912 19.9648 16.6025C19.9636 14.6137 18.4037 13 16.4824 13V13Z" fill="white"/>
</g>
<defs>
<clipPath id="clip0">
<rect width="29" height="30" fill="white" transform="translate(13 13)"/>
</clipPath>
</defs>
</svg>
