<svg width="202" height="25" viewBox="0 0 202 25" fill="none" xmlns="http://www.w3.org/2000/svg">
<path d="M7.08 6.3H0.119995V3H17.94V6.3H10.98V24H7.08V6.3Z" fill="white"/>
<path d="M29.5969 7.8C31.6169 7.8 33.2369 8.39 34.4569 9.57C35.6769 10.75 36.2869 12.5 36.2869 14.82V24H32.5369V15.3C32.5369 13.9 32.2069 12.85 31.5469 12.15C30.8869 11.43 29.9469 11.07 28.7269 11.07C27.3469 11.07 26.2569 11.49 25.4569 12.33C24.6569 13.15 24.2569 14.34 24.2569 15.9V24H20.5069V1.74H24.2569V9.84C24.8769 9.18 25.6369 8.68 26.5369 8.34C27.4569 7.98 28.4769 7.8 29.5969 7.8Z" fill="white"/>
<path d="M56.2505 16.08C56.2505 16.34 56.2305 16.71 56.1905 17.19H43.6205C43.8405 18.37 44.4105 19.31 45.3305 20.01C46.2705 20.69 47.4305 21.03 48.8105 21.03C50.5705 21.03 52.0205 20.45 53.1605 19.29L55.1705 21.6C54.4505 22.46 53.5405 23.11 52.4405 23.55C51.3405 23.99 50.1005 24.21 48.7205 24.21C46.9605 24.21 45.4105 23.86 44.0705 23.16C42.7305 22.46 41.6905 21.49 40.9505 20.25C40.2305 18.99 39.8705 17.57 39.8705 15.99C39.8705 14.43 40.2205 13.03 40.9205 11.79C41.6405 10.53 42.6305 9.55 43.8905 8.85C45.1505 8.15 46.5705 7.8 48.1505 7.8C49.7105 7.8 51.1005 8.15 52.3205 8.85C53.5605 9.53 54.5205 10.5 55.2005 11.76C55.9005 13 56.2505 14.44 56.2505 16.08ZM48.1505 10.8C46.9505 10.8 45.9305 11.16 45.0905 11.88C44.2705 12.58 43.7705 13.52 43.5905 14.7H52.6805C52.5205 13.54 52.0305 12.6 51.2105 11.88C50.3905 11.16 49.3705 10.8 48.1505 10.8Z" fill="white"/>
<path d="M63.4226 10.32C64.5026 8.64 66.4026 7.8 69.1226 7.8V11.37C68.8026 11.31 68.5126 11.28 68.2526 11.28C66.7926 11.28 65.6526 11.71 64.8326 12.57C64.0126 13.41 63.6026 14.63 63.6026 16.23V24H59.8526V7.98H63.4226V10.32Z" fill="white"/>
<path d="M87.2173 16.08C87.2173 16.34 87.1973 16.71 87.1573 17.19H74.5873C74.8073 18.37 75.3773 19.31 76.2973 20.01C77.2373 20.69 78.3973 21.03 79.7773 21.03C81.5373 21.03 82.9873 20.45 84.1273 19.29L86.1373 21.6C85.4173 22.46 84.5073 23.11 83.4073 23.55C82.3073 23.99 81.0673 24.21 79.6873 24.21C77.9273 24.21 76.3773 23.86 75.0373 23.16C73.6973 22.46 72.6573 21.49 71.9173 20.25C71.1973 18.99 70.8373 17.57 70.8373 15.99C70.8373 14.43 71.1873 13.03 71.8873 11.79C72.6073 10.53 73.5973 9.55 74.8573 8.85C76.1173 8.15 77.5373 7.8 79.1173 7.8C80.6773 7.8 82.0673 8.15 83.2873 8.85C84.5273 9.53 85.4873 10.5 86.1673 11.76C86.8673 13 87.2173 14.44 87.2173 16.08ZM79.1173 10.8C77.9173 10.8 76.8973 11.16 76.0573 11.88C75.2373 12.58 74.7373 13.52 74.5573 14.7H83.6473C83.4873 13.54 82.9973 12.6 82.1773 11.88C81.3573 11.16 80.3373 10.8 79.1173 10.8Z" fill="white"/>
<path d="M95.7694 24.21C94.4694 24.21 93.1994 24.04 91.9594 23.7C90.7194 23.36 89.7294 22.93 88.9894 22.41L90.4294 19.56C91.1494 20.04 92.0094 20.43 93.0094 20.73C94.0294 21.01 95.0294 21.15 96.0094 21.15C98.2494 21.15 99.3694 20.56 99.3694 19.38C99.3694 18.82 99.0794 18.43 98.4994 18.21C97.9394 17.99 97.0294 17.78 95.7694 17.58C94.4494 17.38 93.3694 17.15 92.5294 16.89C91.7094 16.63 90.9894 16.18 90.3694 15.54C89.7694 14.88 89.4694 13.97 89.4694 12.81C89.4694 11.29 90.0994 10.08 91.3594 9.18C92.6394 8.26 94.3594 7.8 96.5194 7.8C97.6194 7.8 98.7194 7.93 99.8194 8.19C100.919 8.43 101.819 8.76 102.519 9.18L101.079 12.03C99.7194 11.23 98.1894 10.83 96.4894 10.83C95.3894 10.83 94.5494 11 93.9694 11.34C93.4094 11.66 93.1294 12.09 93.1294 12.63C93.1294 13.23 93.4294 13.66 94.0294 13.92C94.6494 14.16 95.5994 14.39 96.8794 14.61C98.1594 14.81 99.2094 15.04 100.029 15.3C100.849 15.56 101.549 16 102.129 16.62C102.729 17.24 103.029 18.12 103.029 19.26C103.029 20.76 102.379 21.96 101.079 22.86C99.7794 23.76 98.0094 24.21 95.7694 24.21Z" fill="white"/>
<path d="M106.259 7.98H110.009V24H106.259V7.98ZM108.149 5.34C107.469 5.34 106.899 5.13 106.439 4.71C105.979 4.27 105.749 3.73 105.749 3.09C105.749 2.45 105.979 1.92 106.439 1.49999C106.899 1.06 107.469 0.839996 108.149 0.839996C108.829 0.839996 109.399 1.05 109.859 1.47C110.319 1.87 110.549 2.38 110.549 3C110.549 3.66 110.319 4.22 109.859 4.68C109.419 5.12 108.849 5.34 108.149 5.34Z" fill="white"/>
<path d="M121.051 7.8C123.411 7.8 125.211 8.37 126.451 9.51C127.711 10.63 128.341 12.33 128.341 14.61V24H124.801V22.05C124.341 22.75 123.681 23.29 122.821 23.67C121.981 24.03 120.961 24.21 119.761 24.21C118.561 24.21 117.511 24.01 116.611 23.61C115.711 23.19 115.011 22.62 114.511 21.9C114.031 21.16 113.791 20.33 113.791 19.41C113.791 17.97 114.321 16.82 115.381 15.96C116.461 15.08 118.151 14.64 120.451 14.64H124.591V14.4C124.591 13.28 124.251 12.42 123.571 11.82C122.911 11.22 121.921 10.92 120.601 10.92C119.701 10.92 118.811 11.06 117.931 11.34C117.071 11.62 116.341 12.01 115.741 12.51L114.271 9.78C115.111 9.14 116.121 8.65 117.301 8.31C118.481 7.97 119.731 7.8 121.051 7.8ZM120.541 21.48C121.481 21.48 122.311 21.27 123.031 20.85C123.771 20.41 124.291 19.79 124.591 18.99V17.13H120.721C118.561 17.13 117.481 17.84 117.481 19.26C117.481 19.94 117.751 20.48 118.291 20.88C118.831 21.28 119.581 21.48 120.541 21.48Z" fill="white"/>
<path d="M146.833 13.17C148.333 13.45 149.473 14.04 150.253 14.94C151.053 15.84 151.453 17.01 151.453 18.45C151.453 20.23 150.803 21.6 149.503 22.56C148.203 23.52 146.273 24 143.713 24H134.353V3H143.113C145.393 3 147.163 3.47 148.423 4.41C149.703 5.33 150.343 6.65 150.343 8.37C150.343 9.57 150.023 10.58 149.383 11.4C148.763 12.22 147.913 12.81 146.833 13.17ZM135.883 4.32V12.69H143.053C144.893 12.69 146.303 12.34 147.283 11.64C148.283 10.92 148.783 9.87 148.783 8.49C148.783 7.13 148.283 6.1 147.283 5.4C146.303 4.68 144.893 4.32 143.053 4.32H135.883ZM143.713 22.68C145.753 22.68 147.293 22.33 148.333 21.63C149.393 20.91 149.923 19.81 149.923 18.33C149.923 16.85 149.393 15.76 148.333 15.06C147.293 14.36 145.753 14.01 143.713 14.01H135.883V22.68H143.713Z" fill="white"/>
<path d="M169.662 16.53H156.192C156.232 17.75 156.542 18.84 157.122 19.8C157.702 20.74 158.482 21.47 159.462 21.99C160.462 22.51 161.582 22.77 162.822 22.77C163.842 22.77 164.782 22.59 165.642 22.23C166.522 21.85 167.252 21.3 167.832 20.58L168.702 21.57C168.022 22.39 167.162 23.02 166.122 23.46C165.102 23.9 163.992 24.12 162.792 24.12C161.232 24.12 159.842 23.78 158.622 23.1C157.402 22.42 156.442 21.48 155.742 20.28C155.062 19.08 154.722 17.71 154.722 16.17C154.722 14.65 155.042 13.29 155.682 12.09C156.342 10.87 157.242 9.92 158.382 9.24C159.522 8.56 160.802 8.22 162.222 8.22C163.642 8.22 164.912 8.56 166.032 9.24C167.172 9.9 168.062 10.83 168.702 12.03C169.362 13.23 169.692 14.59 169.692 16.11L169.662 16.53ZM162.222 9.54C161.122 9.54 160.132 9.79 159.252 10.29C158.372 10.77 157.662 11.46 157.122 12.36C156.602 13.24 156.302 14.24 156.222 15.36H168.222C168.162 14.24 167.862 13.24 167.322 12.36C166.782 11.48 166.072 10.79 165.192 10.29C164.312 9.79 163.322 9.54 162.222 9.54Z" fill="white"/>
<path d="M174.332 1.74H175.832V24H174.332V1.74Z" fill="white"/>
<path d="M182.155 1.74H183.655V24H182.155V1.74Z" fill="white"/>
<path d="M195.257 8.22C197.197 8.22 198.687 8.72 199.727 9.72C200.767 10.7 201.287 12.15 201.287 14.07V24H199.847V21.21C199.347 22.13 198.617 22.85 197.657 23.37C196.697 23.87 195.547 24.12 194.207 24.12C192.467 24.12 191.087 23.71 190.067 22.89C189.067 22.07 188.567 20.99 188.567 19.65C188.567 18.35 189.027 17.3 189.947 16.5C190.887 15.68 192.377 15.27 194.417 15.27H199.787V14.01C199.787 12.55 199.387 11.44 198.587 10.68C197.807 9.92 196.657 9.54 195.137 9.54C194.097 9.54 193.097 9.72 192.137 10.08C191.197 10.44 190.397 10.92 189.737 11.52L188.987 10.44C189.767 9.74 190.707 9.2 191.807 8.82C192.907 8.42 194.057 8.22 195.257 8.22ZM194.417 22.89C195.717 22.89 196.817 22.59 197.717 21.99C198.637 21.39 199.327 20.52 199.787 19.38V16.44H194.447C192.907 16.44 191.787 16.72 191.087 17.28C190.407 17.84 190.067 18.61 190.067 19.59C190.067 20.61 190.447 21.42 191.207 22.02C191.967 22.6 193.037 22.89 194.417 22.89Z" fill="white"/>
</svg>
