<svg width="56" height="56" viewBox="0 0 56 56" fill="none" xmlns="http://www.w3.org/2000/svg">
<rect width="56" height="56" rx="8" fill="#222A37"/>
<path d="M40.3633 16.5742H15.6367C14.1846 16.5742 13 17.7576 13 19.2109V36.7891C13 38.2375 14.1794 39.4258 15.6367 39.4258H40.3633C41.8117 39.4258 43 38.2464 43 36.7891V19.2109C43 17.7625 41.8206 16.5742 40.3633 16.5742ZM39.9992 18.332L28.0559 30.2754L16.0093 18.332H39.9992ZM14.7578 36.4251V19.5665L23.2234 27.9595L14.7578 36.4251ZM16.0008 37.668L24.4717 29.1971L27.4398 32.1398C27.7834 32.4804 28.3379 32.4793 28.6801 32.1371L31.5742 29.243L39.9992 37.668H16.0008ZM41.2422 36.425L32.8172 28L41.2422 19.5749V36.425Z" fill="#E5E5E5"/>
</svg>
