<svg width="56" height="56" viewBox="0 0 56 56" fill="none" xmlns="http://www.w3.org/2000/svg">
<rect width="56" height="56" rx="8" fill="#222A37"/>
<path fill-rule="evenodd" clip-rule="evenodd" d="M38.629 17.3597C35.8089 14.5498 32.0584 13.0016 28.0627 13C19.8294 13 13.1286 19.6685 13.1253 27.8647C13.1242 30.4847 13.8119 33.0424 15.1191 35.2968L13 43L20.9186 40.9327C23.1005 42.1172 25.5569 42.7415 28.0567 42.7422H28.0629C36.2954 42.7422 42.9969 36.0731 43 27.8766C43.0017 23.9043 41.4494 20.1695 38.629 17.3597ZM28.0627 40.2316H28.0576C25.8299 40.2307 23.6451 39.6349 21.7386 38.5093L21.2854 38.2415L16.5864 39.4683L17.8407 34.9088L17.5454 34.4413C16.3025 32.474 15.6463 30.2002 15.6474 27.8656C15.6499 21.0532 21.2196 15.5107 28.0677 15.5107C31.3839 15.5118 34.5011 16.7987 36.8451 19.1342C39.1891 21.4697 40.4792 24.5741 40.4781 27.8757C40.4752 34.6887 34.9059 40.2316 28.0627 40.2316ZM34.8728 30.9777C34.4997 30.7916 32.6646 29.8933 32.3224 29.7692C31.9805 29.6452 31.7314 29.5835 31.4829 29.9552C31.2339 30.3269 30.5188 31.1637 30.3009 31.4114C30.0831 31.6594 29.8656 31.6905 29.4923 31.5045C29.119 31.3186 27.9165 30.9262 26.4908 29.6608C25.3813 28.6758 24.6323 27.4595 24.4145 27.0878C24.197 26.7157 24.4126 26.5341 24.5782 26.3297C24.9823 25.8304 25.3868 25.3069 25.5112 25.0591C25.6358 24.8112 25.5734 24.5942 25.4799 24.4084C25.3868 24.2225 24.6404 22.3942 24.3295 21.6503C24.0263 20.9263 23.7188 21.024 23.4896 21.0127C23.2721 21.0019 23.0232 20.9997 22.7743 20.9997C22.5255 20.9997 22.1211 21.0925 21.7789 21.4646C21.4369 21.8365 20.4728 22.735 20.4728 24.5633C20.4728 26.3916 21.8102 28.1578 21.9967 28.4058C22.1833 28.6537 24.6286 32.4055 28.3726 34.0143C29.2631 34.3973 29.9582 34.6257 30.5004 34.7969C31.3945 35.0796 32.2079 35.0397 32.8512 34.9441C33.5683 34.8373 35.0592 34.0454 35.3705 33.1779C35.6814 32.3101 35.6814 31.5665 35.5879 31.4114C35.4948 31.2565 35.2459 31.1637 34.8728 30.9777Z" fill="white"/>
</svg>
